<svg width="53" height="54" viewBox="0 0 53 54" fill="none" xmlns="http://www.w3.org/2000/svg">
<path d="M0.473632 27.0415C0.473631 30.8663 0.473095 33.7142 0.612303 35.9878C0.751282 38.2573 1.02786 39.9241 1.5664 41.3901C3.37039 46.3005 7.24099 50.1711 12.1514 51.9751C13.6174 52.5136 15.2842 52.7902 17.5537 52.9292C19.8273 53.0684 22.6752 53.0679 26.5 53.0679C30.3248 53.0679 33.1727 53.0684 35.4463 52.9292C37.7158 52.7902 39.3826 52.5136 40.8486 51.9751C45.759 50.1711 49.6296 46.3005 51.4336 41.3901C51.9721 39.9241 52.2487 38.2573 52.3877 35.9878C52.5269 33.7142 52.5264 30.8663 52.5264 27.0415C52.5264 23.2167 52.5269 20.3688 52.3877 18.0952C52.2487 15.8257 51.9721 14.1589 51.4336 12.6929C49.6296 7.7825 45.759 3.91189 40.8486 2.10791C39.3826 1.56937 37.7158 1.29279 35.4463 1.15381C33.1727 1.0146 30.3248 1.01514 26.5 1.01514C22.6752 1.01514 19.8273 1.0146 17.5537 1.15381C15.2842 1.29279 13.6174 1.56937 12.1514 2.10791C7.24099 3.91189 3.37039 7.7825 1.56641 12.6929C1.02786 14.1589 0.751283 15.8257 0.612304 18.0952C0.473096 20.3688 0.473632 23.2167 0.473632 27.0415Z" stroke="url(#paint0_linear_203_36)" stroke-width="0.946429"/>
<path d="M26.0268 38.3987C26.0268 38.66 26.2387 38.8719 26.5 38.8719C26.7613 38.8719 26.9732 38.66 26.9732 38.3987L26.0268 38.3987ZM26.8346 15.9807C26.6498 15.7959 26.3502 15.7959 26.1654 15.9807L23.1539 18.9923C22.9691 19.1771 22.9691 19.4767 23.1539 19.6615C23.3387 19.8463 23.6383 19.8463 23.8231 19.6615L26.5 16.9846L29.1769 19.6615C29.3617 19.8463 29.6613 19.8463 29.8461 19.6615C30.0309 19.4767 30.0309 19.1771 29.8461 18.9923L26.8346 15.9807ZM26.9732 38.3987L26.9732 16.3153L26.0268 16.3153L26.0268 38.3987L26.9732 38.3987Z" fill="url(#paint1_linear_203_36)"/>
<defs>
<linearGradient id="paint0_linear_203_36" x1="34.6657" y1="53.5415" x2="36.6358" y2="13.2415" gradientUnits="userSpaceOnUse">
<stop stop-color="#237249"/>
<stop offset="1" stop-color="#35C66B"/>
</linearGradient>
<linearGradient id="paint1_linear_203_36" x1="27.1541" y1="16.3153" x2="35.5454" y2="24.0884" gradientUnits="userSpaceOnUse">
<stop stop-color="#237249"/>
<stop offset="1" stop-color="#35C66B"/>
</linearGradient>
</defs>
</svg>
