<svg width="84" height="84" viewBox="0 0 84 84" fill="none" xmlns="http://www.w3.org/2000/svg">
<path d="M42 0.75C35.938 0.75 31.4247 0.750071 27.8213 0.970703C24.2239 1.19099 21.5816 1.6287 19.2578 2.48242C11.4754 5.34157 5.34156 11.4754 2.48242 19.2578C1.6287 21.5816 1.19099 24.2239 0.970703 27.8213C0.750071 31.4247 0.75 35.938 0.75 42C0.75 48.062 0.750071 52.5753 0.970703 56.1787C1.19099 59.7761 1.6287 62.4184 2.48242 64.7422C5.34156 72.5246 11.4754 78.6584 19.2578 81.5176C21.5816 82.3713 24.2239 82.809 27.8213 83.0293C31.4247 83.2499 35.938 83.25 42 83.25C48.062 83.25 52.5753 83.2499 56.1787 83.0293C59.7761 82.809 62.4184 82.3713 64.7422 81.5176C72.5246 78.6584 78.6584 72.5246 81.5176 64.7422C82.3713 62.4184 82.809 59.7761 83.0293 56.1787C83.2499 52.5753 83.25 48.062 83.25 42C83.25 35.938 83.2499 31.4247 83.0293 27.8213C82.809 24.2239 82.3713 21.5816 81.5176 19.2578C78.6584 11.4754 72.5246 5.34157 64.7422 2.48242C62.4184 1.6287 59.7761 1.19099 56.1787 0.970703C52.5753 0.750071 48.062 0.75 42 0.75Z" stroke="url(#paint0_linear_24_91)" stroke-width="1.5"/>
<path d="M24 41.25C23.5858 41.25 23.25 41.5858 23.25 42C23.25 42.4142 23.5858 42.75 24 42.75V41.25ZM59.5303 42.5303C59.8232 42.2374 59.8232 41.7626 59.5303 41.4697L54.7574 36.6967C54.4645 36.4038 53.9896 36.4038 53.6967 36.6967C53.4038 36.9896 53.4038 37.4645 53.6967 37.7574L57.9393 42L53.6967 46.2426C53.4038 46.5355 53.4038 47.0104 53.6967 47.3033C53.9896 47.5962 54.4645 47.5962 54.7574 47.3033L59.5303 42.5303ZM24 42.75H59V41.25H24V42.75Z" fill="url(#paint1_linear_24_91)"/>
<defs>
<linearGradient id="paint0_linear_24_91" x1="-3.73048e-06" y1="54.9419" x2="63.8716" y2="58.0642" gradientUnits="userSpaceOnUse">
<stop stop-color="#237249"/>
<stop offset="1" stop-color="#35C66B"/>
</linearGradient>
<linearGradient id="paint1_linear_24_91" x1="59" y1="42.6541" x2="52.2075" y2="54.2758" gradientUnits="userSpaceOnUse">
<stop stop-color="#237249"/>
<stop offset="1" stop-color="#35C66B"/>
</linearGradient>
</defs>
</svg>
