<svg width="121" height="120" viewBox="0 0 121 120" fill="none" xmlns="http://www.w3.org/2000/svg">
<g filter="url(#filter0_d_201_16)">
<path d="M86.9697 15.4226C90.7578 14.3429 94.4383 17.4312 94.0328 21.3493C93.7189 24.3817 95.9026 27.1025 98.931 27.4524C102.844 27.9044 105.063 32.1662 103.188 35.6308C101.738 38.3123 102.714 41.6616 105.378 43.1438C108.82 45.0589 109.239 49.8452 106.182 52.3289C103.816 54.2512 103.436 57.7192 105.33 60.108C107.777 63.1946 106.332 67.7768 102.557 68.9015C99.6357 69.772 97.9576 72.8306 98.7933 75.7624C99.8731 79.5506 96.7847 83.2311 92.8667 82.8255C89.8343 82.5117 87.1135 84.6953 86.7636 87.7238C86.3115 91.6367 82.0498 93.8553 78.5852 91.9812C75.9037 90.5308 72.5544 91.507 71.0722 94.171C69.1571 97.6132 64.3708 98.0319 61.887 94.9746C59.9647 92.6085 56.4968 92.2286 54.1079 94.1227C51.0214 96.5699 46.4391 95.1251 45.3144 91.3501C44.444 88.4284 41.3854 86.7504 38.4535 87.5861C34.6654 88.6658 30.9849 85.5775 31.3904 81.6594C31.7043 78.627 29.5206 75.9063 26.4922 75.5563C22.5792 75.1043 20.3607 70.8425 22.2348 67.3779C23.6852 64.6965 22.709 61.3471 20.0449 59.8649C16.6028 57.9498 16.1841 53.1635 19.2413 50.6798C21.6075 48.7575 21.9873 45.2895 20.0933 42.9007C17.6461 39.8141 19.0908 35.2319 22.8658 34.1072C25.7875 33.2367 27.4656 30.1781 26.6299 27.2463C25.5501 23.4581 28.6385 19.7776 32.5565 20.1832C35.5889 20.497 38.3097 18.3134 38.6596 15.2849C39.1117 11.372 43.3734 9.15344 46.838 11.0275C49.5195 12.4779 52.8688 11.5017 54.351 8.83766C56.2661 5.39556 61.0524 4.97681 63.5362 8.03407C65.4585 10.4003 68.9264 10.7801 71.3153 8.88602C74.4018 6.43881 78.9841 7.88358 80.1088 11.6586C80.9792 14.5803 84.0379 16.2583 86.9697 15.4226Z" fill="url(#paint0_linear_201_16)"/>
</g>
<defs>
<filter id="filter0_d_201_16" x="0.225633" y="-0.00830936" width="119.984" height="119.984" filterUnits="userSpaceOnUse" color-interpolation-filters="sRGB">
<feFlood flood-opacity="0" result="BackgroundImageFix"/>
<feColorMatrix in="SourceAlpha" type="matrix" values="0 0 0 0 0 0 0 0 0 0 0 0 0 0 0 0 0 0 127 0" result="hardAlpha"/>
<feOffset dx="-2.49393" dy="8.47935"/>
<feGaussianBlur stdDeviation="7.23238"/>
<feComposite in2="hardAlpha" operator="out"/>
<feColorMatrix type="matrix" values="0 0 0 0 0.0775104 0 0 0 0 0.241623 0 0 0 0 0.157958 0 0 0 0.46 0"/>
<feBlend mode="normal" in2="BackgroundImageFix" result="effect1_dropShadow_201_16"/>
<feBlend mode="normal" in="SourceGraphic" in2="effect1_dropShadow_201_16" result="shape"/>
</filter>
<linearGradient id="paint0_linear_201_16" x1="91.1357" y1="95.4853" x2="30.4442" y2="49.4157" gradientUnits="userSpaceOnUse">
<stop stop-color="#237249"/>
<stop offset="1" stop-color="#35C66B"/>
</linearGradient>
</defs>
</svg>
