<svg width="92" height="93" viewBox="0 0 92 93" fill="none" xmlns="http://www.w3.org/2000/svg">
<path d="M69.9697 10.4226C73.7578 9.34288 77.4383 12.4312 77.0328 16.3493V16.3493C76.7189 19.3817 78.9026 22.1025 81.931 22.4524V22.4524C85.844 22.9044 88.0625 27.1662 86.1885 30.6308V30.6308C84.738 33.3123 85.7143 36.6616 88.3783 38.1438V38.1438C91.8204 40.0589 92.2391 44.8452 89.1819 47.3289V47.3289C86.8157 49.2512 86.4359 52.7192 88.3299 55.108V55.108C90.7771 58.1946 89.3324 62.7768 85.5574 63.9015V63.9015C82.6357 64.772 80.9576 67.8306 81.7933 70.7624V70.7624C82.8731 74.5506 79.7847 78.2311 75.8667 77.8255V77.8255C72.8343 77.5117 70.1135 79.6953 69.7636 82.7238V82.7238C69.3115 86.6368 65.0498 88.8553 61.5852 86.9812V86.9812C58.9037 85.5308 55.5544 86.507 54.0722 89.171V89.171C52.1571 92.6131 47.3708 93.0319 44.887 89.9746V89.9746C42.9647 87.6085 39.4968 87.2287 37.1079 89.1227V89.1227C34.0214 91.5699 29.4391 90.1251 28.3144 86.3501V86.3501C27.444 83.4284 24.3854 81.7504 21.4535 82.5861V82.5861C17.6654 83.6658 13.9849 80.5775 14.3904 76.6594V76.6594C14.7043 73.627 12.5206 70.9062 9.49217 70.5563V70.5563C5.57921 70.1043 3.36069 65.8425 5.23475 62.3779V62.3779C6.68519 59.6964 5.70895 56.3471 3.04491 54.8649V54.8649C-0.397191 52.9498 -0.815938 48.1635 2.24132 45.6798V45.6798C4.6075 43.7575 4.98731 40.2895 3.09327 37.9007V37.9007C0.646059 34.8141 2.09083 30.2319 5.86584 29.1072V29.1072C8.78754 28.2367 10.4656 25.1781 9.62988 22.2463V22.2463C8.55013 18.4581 11.6385 14.7776 15.5565 15.1832V15.1832C18.5889 15.497 21.3097 13.3134 21.6596 10.2849V10.2849C22.1117 6.37196 26.3734 4.15344 29.838 6.0275V6.0275C32.5195 7.47794 35.8688 6.5017 37.351 3.83766V3.83766C39.2661 0.395559 44.0524 -0.0231885 46.5362 3.03407V3.03407C48.4585 5.40025 51.9264 5.78006 54.3153 3.88602V3.88602C57.4018 1.43881 61.9841 2.88358 63.1088 6.65859V6.65859C63.9792 9.58029 67.0379 11.2583 69.9697 10.4226V10.4226Z" fill="url(#paint0_linear_201_16)"/>
<defs>
<linearGradient id="paint0_linear_201_16" x1="74.1357" y1="90.4853" x2="13.4442" y2="44.4157" gradientUnits="userSpaceOnUse">
<stop stop-color="#237249"/>
<stop offset="1" stop-color="#35C66B"/>
</linearGradient>
</defs>
</svg>
