<svg width="428" height="474" viewBox="0 0 428 474" fill="none" xmlns="http://www.w3.org/2000/svg">
<path d="M453.337 255.285L371.184 250.241C349.152 248.888 331.068 232.31 327.809 210.478L326.79 203.654C323.293 180.226 302.828 163.116 279.151 163.824L266.223 164.211C255.27 164.539 244.55 161.009 235.935 154.238L219.823 141.575C204.017 129.152 182.039 128.225 165.243 139.271L92.6922 186.985C76.7511 197.469 56.039 197.214 40.3603 186.342L22.1142 173.69C6.25124 162.69 -14.7412 162.57 -30.7288 173.388L-67.8591 198.512" stroke="#D9D9D9" stroke-width="0.629372" stroke-linejoin="round"/>
<path d="M446.767 271.122L364.614 266.077C342.582 264.724 324.498 248.146 321.239 226.314L320.22 219.49C316.723 196.062 296.258 178.952 272.581 179.66L259.653 180.047C248.7 180.375 237.98 176.845 229.365 170.074L213.253 157.411C197.447 144.988 175.469 144.061 158.673 155.107L86.1222 202.821C70.1811 213.305 49.469 213.051 33.7903 202.178L15.5442 189.526C-0.318764 178.526 -21.3113 178.406 -37.2988 189.224L-74.4291 214.349" stroke="#D9D9D9" stroke-width="0.629372" stroke-linejoin="round"/>
<path d="M440.197 286.958L358.044 281.913C336.012 280.56 317.928 263.982 314.669 242.151L313.65 235.326C310.153 211.898 289.688 194.788 266.011 195.497L253.083 195.884C242.13 196.211 231.41 192.681 222.795 185.91L206.683 173.247C190.877 160.825 168.899 159.897 152.103 170.944L79.552 218.658C63.611 229.141 42.8988 228.887 27.2201 218.015L8.97408 205.362C-6.88889 194.362 -27.8814 194.242 -43.869 205.061L-80.9992 230.185" stroke="#D9D9D9" stroke-width="0.629372" stroke-linejoin="round"/>
</svg>
