<svg width="428" height="450" viewBox="0 0 428 450" fill="none" xmlns="http://www.w3.org/2000/svg">
<path d="M-26.9696 264.253L54.5541 252.922C76.4174 249.883 93.1767 231.967 94.7517 209.95L95.244 203.067C96.9341 179.44 116.027 160.81 139.688 159.701L152.607 159.095C163.553 158.582 173.971 154.24 182.042 146.828L197.135 132.967C211.941 119.368 233.783 116.758 251.378 126.483L327.374 168.492C344.072 177.722 364.704 175.88 379.503 163.837L396.724 149.822C411.697 137.638 432.618 135.908 449.389 145.468L488.337 167.671" stroke="#D9D9D9" stroke-width="0.629372" stroke-linejoin="round"/>
<path d="M-19.2043 279.539L62.3194 268.207C84.1828 265.169 100.942 247.252 102.517 225.235L103.009 218.353C104.699 194.726 123.792 176.096 147.453 174.986L160.373 174.381C171.318 173.867 181.736 169.525 189.807 162.113L204.9 148.252C219.707 134.654 241.549 132.043 259.143 141.769L335.139 183.777C351.838 193.008 372.469 191.165 387.268 179.123L404.49 165.108C419.462 152.924 440.384 151.194 457.154 160.754L496.102 182.956" stroke="#D9D9D9" stroke-width="0.629372" stroke-linejoin="round"/>
<path d="M-11.4388 294.825L70.0848 283.493C91.9482 280.454 108.708 262.538 110.282 240.521L110.775 233.638C112.465 210.011 131.558 191.382 155.219 190.272L168.138 189.666C179.084 189.153 189.502 184.811 197.573 177.399L212.665 163.538C227.472 149.94 249.314 147.329 266.908 157.055L342.905 199.063C359.603 208.293 380.235 206.451 395.033 194.408L412.255 180.394C427.228 168.209 448.149 166.48 464.919 176.04L503.867 198.242" stroke="#D9D9D9" stroke-width="0.629372" stroke-linejoin="round"/>
</svg>
