<svg width="375" height="293" viewBox="0 0 375 293" fill="none" xmlns="http://www.w3.org/2000/svg">
<path d="M0.5 283L57.3668 241.859C72.7552 230.727 79.8504 211.371 75.3027 192.93L71.4448 177.286C66.1867 155.965 76.5224 133.865 96.2571 124.233L103.661 120.619C113.51 115.812 121.351 107.688 125.805 97.674L132.048 83.6396C140.78 64.0107 161.796 52.8912 182.936 56.7149L241.764 67.355C261.971 71.0098 282.189 61.0114 291.55 42.7347L297.425 31.2639C306.906 12.7546 327.5 2.76377 347.905 6.77451L378.431 12.7744" stroke="#D9D9D9" stroke-width="0.627515" stroke-linejoin="round"/>
<path d="M7 292.5L66.2237 253.234C82.6337 242.354 90.4384 222.337 85.724 203.221L82.2022 188.94C76.9441 167.619 87.2798 145.519 107.014 135.887L114.418 132.273C124.268 127.466 132.108 119.342 136.563 109.328L142.806 95.2935C151.537 75.6646 172.553 64.5451 193.694 68.3688L252.521 79.0088C272.728 82.6636 292.946 72.6653 302.307 54.3886L308.183 42.9178C317.663 24.4085 338.257 14.4176 358.663 18.4284L389.189 24.4283" stroke="#D9D9D9" stroke-width="0.627515" stroke-linejoin="round"/>
<path d="M42.5 288.5L77.3758 264.954C93.5752 254.017 101.231 234.135 96.5512 215.158L92.9596 200.594C87.7015 179.273 98.0372 157.173 117.772 147.541L125.176 143.927C135.025 139.12 142.866 130.996 147.32 120.982L153.563 106.947C162.295 87.3184 183.311 76.1989 204.451 80.0226L263.279 90.6627C283.485 94.3174 303.704 84.3191 313.065 66.0424L318.94 54.5716C328.421 36.0623 349.015 26.0715 369.42 30.0822L399.946 36.0821" stroke="#D9D9D9" stroke-width="0.627515" stroke-linejoin="round"/>
</svg>
